inDegrees=no
num_controls=7
num_derivatives=13
num_iterations=40
num_multipliers=7
num_parameters=0
num_slacks=7
num_states=26
objective=0.471466
objective_accelerations=0.059135
objective_balance=0.000652
objective_effort=0.015940
objective_height=0.386548
objective_ligament=0.009192
solver_duration=578.873863
status=Solve_Succeeded
success=true
DataType=double
version=3
OpenSimVersion=4.5
endheader
time	/jointset/ground_pelvis/pelvis_tilt/value	/jointset/ground_pelvis/pelvis_tx/value	/jointset/ground_pelvis/pelvis_ty/value	/jointset/hip_l/hip_flexion_l/value	/jointset/hip_l/hip_adduction_l/value	/jointset/hip_l/hip_rotation_l/value	/jointset/back/lumbar_extension/value	/jointset/patellofemoral_l/patellar_flexion_l/value	/jointset/knee_l/knee_flexion_l/value	/jointset/knee_l/knee_adduction_l/value	/jointset/knee_l/knee_rotation_l/value	/jointset/ankle_l/ankle_angle_l/value	/jointset/subtalar_l/subtalar_angle_l/value	/jointset/ground_pelvis/pelvis_tilt/speed	/jointset/ground_pelvis/pelvis_tx/speed	/jointset/ground_pelvis/pelvis_ty/speed	/jointset/hip_l/hip_flexion_l/speed	/jointset/hip_l/hip_adduction_l/speed	/jointset/hip_l/hip_rotation_l/speed	/jointset/back/lumbar_extension/speed	/jointset/patellofemoral_l/patellar_flexion_l/speed	/jointset/knee_l/knee_flexion_l/speed	/jointset/knee_l/knee_adduction_l/speed	/jointset/knee_l/knee_rotation_l/speed	/jointset/ankle_l/ankle_angle_l/speed	/jointset/subtalar_l/subtalar_angle_l/speed	/forceset/tau_hip_flexion_l	/forceset/tau_hip_adduction_l	/forceset/tau_hip_rotation_l	/forceset/tau_knee_flexion_l	/forceset/tau_ankle_angle_l	/forceset/tau_subtalar_angle_l	/forceset/tau_lumbar_extension	lambda_cid13_p0	lambda_cid13_p1	lambda_cid13_p2	lambda_cid13_p3	lambda_cid13_p4	lambda_cid13_p5	lambda_cid14_p0	/jointset/ground_pelvis/pelvis_tilt/accel	/jointset/ground_pelvis/pelvis_tx/accel	/jointset/ground_pelvis/pelvis_ty/accel	/jointset/hip_l/hip_flexion_l/accel	/jointset/hip_l/hip_adduction_l/accel	/jointset/hip_l/hip_rotation_l/accel	/jointset/back/lumbar_extension/accel	/jointset/patellofemoral_l/patellar_flexion_l/accel	/jointset/knee_l/knee_flexion_l/accel	/jointset/knee_l/knee_adduction_l/accel	/jointset/knee_l/knee_rotation_l/accel	/jointset/ankle_l/ankle_angle_l/accel	/jointset/subtalar_l/subtalar_angle_l/accel	gamma_cid13_p0	gamma_cid13_p1	gamma_cid13_p2	gamma_cid13_p3	gamma_cid13_p4	gamma_cid13_p5	gamma_cid14_p0
0	0.05459185976025159	0.1046643116691019	0.9048727326561007	0.1266922784136757	-0.3527726725304787	-0.2356281958579757	-0.2144969558742783	0.2051545070141847	0.2051545070141877	-0.1389269750604047	-0.1621850324604042	0.09024313228550125	0.09792111459283416	0	0	0	0	0	0	0	0	0	0	0	0	0	0.1136560687264143	-0.02299493890026576	-0.008281925840467524	-0.2428877937707008	0.1856453177998166	-0.09754699936076565	-0.04681081482228831	27.48554829238469	39.43961764088233	-8.724715804402702	-16.3397313036182	-441.1461320058044	-30.45839857877839	-26.05174312381753	-3.281878591619326	-1.100775266838132	-0.8076054041942838	10.89192720857437	-0.07542125215359428	2.90335293474923	-3.532927882489491	9.770246631303724	9.770246631305971	2.362394203802787	-0.6284914530498441	3.091354175269534	0.8596592437742825	2.407893856807629e-08	7.295892196286849e-07	-4.611650720041989e-07	7.005552476877021e-08	6.563491083615515e-08	5.896024505118436e-07	1.268972991450861e-07
0.01	0.05443590466462167	0.1046111693713787	0.9048333419067295	0.1272195336026549	-0.3527779055793406	-0.2354785357785005	-0.2146759872317714	0.2056329143718111	0.2056329143717315	-0.1388148508933242	-0.1622091982567742	0.09039602657815866	0.09796191941616621	-0.03098817160087051	-0.01046416576715758	-0.00787705218395464	0.1047792103627871	-0.001308884776839888	0.02982612408534148	-0.03540847081055348	0.09538534420494481	0.09538534420495245	0.02180986999449389	-0.004934816777644339	0.03060032707141973	0.007884372565543024	0.1114739046760579	-0.0319131865300251	-0.007997448196041637	-0.2420229817703256	0.1837198289012522	-0.08913847866188385	-0.04473047736278287	27.44838782355875	35.70682592962337	-8.029685445098318	-17.48848299031825	-441.0794124676168	-38.04128255171506	-26.05167995685393	-2.976855788252982	-0.9945791541075925	-0.7775773449473264	10.17014706342352	-0.1979951229646947	3.006450876367567	-3.48513657696021	9.378233838518241	9.378233838517849	1.998108371797275	-0.4413178530932796	3.047610576557982	0.7112777792499787	-6.279695823533569e-09	6.322002570924024e-07	-1.992526019121677e-07	6.994120038331331e-08	-1.005021359834695e-07	3.190938884001349e-07	9.159813997492486e-08
0.02	0.05397615398418525	0.1044583170314928	0.9047152161916283	0.1287744267179596	-0.3528041020825118	-0.2350337727120122	-0.2151971692766895	0.2070562862761154	0.2070562862761284	-0.1385030630315626	-0.1622857804336238	0.09085557186221033	0.09807325826841568	-0.06075911695902365	-0.01994200843252672	-0.01574699314595246	0.2055275852572213	-0.004192690854326418	0.05902059740834019	-0.06843013748596882	0.1889929093470385	0.1889929093470431	0.03993273896998598	-0.01048327607413941	0.06133019828204631	0.0141068057833164	0.1092917406265042	-0.0408314341596584	-0.007712970551001174	-0.241158169769504	0.1817943400029074	-0.08072995796280157	-0.04265013990283799	27.45551992802573	31.98052291537572	-7.351961009915837	-18.67835448827849	-440.2086040250315	-45.43523578724206	-26.05169237472666	-3.038433343075658	-0.9035106464805064	-0.8061831598029126	10.08576011490367	-0.3904055122829319	2.777022782280725	-3.055567055461771	9.414690818733529	9.414690818733638	1.624994000002445	-0.751219956820009	3.117263003110856	0.5272713742203029	-3.663833021514344e-08	5.348112945561198e-07	6.265986817986348e-08	6.982687599785641e-08	-2.666391828030942e-07	4.858532628842623e-08	5.629898080476361e-08
0.03	0.05322458642519262	0.1042138068835145	0.904518633496447	0.1313188159367536	-0.3528628475951832	-0.2343011542561473	-0.216040039857548	0.2094046758985313	0.2094046758985725	-0.1380208455934496	-0.1624191033844863	0.0916205376755274	0.09824228056452596	-0.08933156750305055	-0.02897543778901238	-0.02354083118111339	0.3028350936985988	-0.007394576004913184	0.08743664394283548	-0.1001278820906728	0.2801291934333402	0.2801291934333526	0.05665628530828532	-0.01595705863458027	0.09142596070352103	0.01980279681585815	0.1058445512938748	-0.03588098193672776	-0.007031465273710246	-0.2363988419039889	0.1750299231609849	-0.08212712206681651	-0.04018470429180241	25.16075934609347	32.79737314714079	-7.263182482116286	-16.8180738615549	-440.4741663395935	-43.02617121273388	-26.05188900172366	-2.733225279337449	-0.9055576093160069	-0.7617309180685973	9.475968303707685	-0.2608951553070251	2.863935638843812	-3.224463673386426	8.879712831711197	8.879712831712553	1.717963931800413	-0.4118208250892735	2.92019690735213	0.6064432678639775	-3.878769790419302e-08	8.215793027028071e-07	-9.330115341844264e-08	1.087475187231747e-07	-3.839527826631428e-07	2.492513484715358e-07	1.077231192392971e-07
